<svg width="8" height="12" viewBox="0 0 8 12" fill="none" xmlns="http://www.w3.org/2000/svg">
<path d="M3.28994 6L6.82994 2.46C7.01619 2.27264 7.12074 2.01919 7.12074 1.755C7.12074 1.49081 7.01619 1.23736 6.82994 1.05C6.73698 0.956272 6.62638 0.881877 6.50452 0.831109C6.38266 0.78034 6.25196 0.754202 6.11994 0.754202C5.98793 0.754202 5.85723 0.78034 5.73537 0.831109C5.61351 0.881877 5.50291 0.956272 5.40994 1.05L1.16994 5.29C1.07622 5.38296 1.00182 5.49356 0.951053 5.61542C0.900284 5.73728 0.874146 5.86799 0.874146 6C0.874146 6.13201 0.900284 6.26272 0.951053 6.38458C1.00182 6.50644 1.07622 6.61704 1.16994 6.71L5.40994 11C5.50338 11.0927 5.6142 11.166 5.73604 11.2158C5.85787 11.2655 5.98834 11.2908 6.11994 11.29C6.25155 11.2908 6.38201 11.2655 6.50385 11.2158C6.62569 11.166 6.7365 11.0927 6.82994 11C7.01619 10.8126 7.12074 10.5592 7.12074 10.295C7.12074 10.0308 7.01619 9.77736 6.82994 9.59L3.28994 6Z" fill="#242E56"/>
</svg>
